<mxfile host="app.diagrams.net" modified="2021-09-13T09:01:33.701Z" agent="5.0 (Windows NT 10.0; Win64; x64) AppleWebKit/537.36 (KHTML, like Gecko) Chrome/93.0.4577.63 Safari/537.36" etag="eCZOKWxiBuWXFP2ZzekK" version="15.2.1" type="github">
  <diagram id="C5RBs43oDa-KdzZeNtuy" name="I2C Diagram">
    <mxGraphModel dx="3808" dy="1303" grid="1" gridSize="10" guides="1" tooltips="1" connect="1" arrows="1" fold="1" page="1" pageScale="1" pageWidth="827" pageHeight="1169" background="#283618" math="0" shadow="0">
      <root>
        <mxCell id="WIyWlLk6GJQsqaUBKTNV-0" />
        <mxCell id="WIyWlLk6GJQsqaUBKTNV-1" parent="WIyWlLk6GJQsqaUBKTNV-0" />
        <mxCell id="vuCsuV92tiSEWa9CnFil-13" value="main.py" style="shape=module;align=left;spacingLeft=20;align=center;verticalAlign=top;fillColor=#BC6C25;strokeColor=#DDA15E;fontColor=#FEFAE0;strokeWidth=3;fontStyle=1;fontSize=30;" vertex="1" parent="WIyWlLk6GJQsqaUBKTNV-1">
          <mxGeometry x="-650" y="120" width="168" height="50" as="geometry" />
        </mxCell>
        <mxCell id="vuCsuV92tiSEWa9CnFil-24" style="edgeStyle=orthogonalEdgeStyle;rounded=0;orthogonalLoop=1;jettySize=auto;html=1;entryX=0.5;entryY=1;entryDx=0;entryDy=0;endArrow=open;endFill=0;labelBackgroundColor=#283618;strokeColor=#DDA15E;fontColor=#FEFAE0;" edge="1" parent="WIyWlLk6GJQsqaUBKTNV-1" target="vuCsuV92tiSEWa9CnFil-13">
          <mxGeometry relative="1" as="geometry">
            <mxPoint x="-566" y="280" as="sourcePoint" />
            <Array as="points">
              <mxPoint x="-566" y="250" />
            </Array>
          </mxGeometry>
        </mxCell>
        <mxCell id="vuCsuV92tiSEWa9CnFil-41" value="MainFrame" style="swimlane;fontStyle=0;align=center;verticalAlign=top;childLayout=stackLayout;horizontal=1;startSize=26;horizontalStack=0;resizeParent=1;resizeLast=0;collapsible=1;marginBottom=0;rounded=0;shadow=0;strokeWidth=1;fillColor=#BC6C25;strokeColor=#DDA15E;fontColor=#FEFAE0;fontSize=18;" vertex="1" parent="WIyWlLk6GJQsqaUBKTNV-1">
          <mxGeometry x="-646" y="240" width="516" height="310" as="geometry">
            <mxRectangle x="120" y="360" width="160" height="26" as="alternateBounds" />
          </mxGeometry>
        </mxCell>
        <mxCell id="vuCsuV92tiSEWa9CnFil-44" value="" style="line;html=1;strokeWidth=1;align=left;verticalAlign=middle;spacingTop=-1;spacingLeft=3;spacingRight=3;rotatable=0;labelPosition=right;points=[];portConstraint=eastwest;labelBackgroundColor=#283618;fillColor=#BC6C25;strokeColor=#DDA15E;fontColor=#FEFAE0;fontSize=18;" vertex="1" parent="vuCsuV92tiSEWa9CnFil-41">
          <mxGeometry y="26" width="516" height="8" as="geometry" />
        </mxCell>
        <mxCell id="vuCsuV92tiSEWa9CnFil-45" value="__init__" style="text;align=left;verticalAlign=top;spacingLeft=4;spacingRight=4;overflow=hidden;rotatable=0;points=[[0,0.5],[1,0.5]];portConstraint=eastwest;fontStyle=0;fontColor=#FEFAE0;fontSize=18;" vertex="1" parent="vuCsuV92tiSEWa9CnFil-41">
          <mxGeometry y="34" width="516" height="26" as="geometry" />
        </mxCell>
        <mxCell id="vuCsuV92tiSEWa9CnFil-46" value="msg_text(self, msg:str )" style="text;align=left;verticalAlign=top;spacingLeft=4;spacingRight=4;overflow=hidden;rotatable=0;points=[[0,0.5],[1,0.5]];portConstraint=eastwest;fontColor=#FEFAE0;fontSize=18;" vertex="1" parent="vuCsuV92tiSEWa9CnFil-41">
          <mxGeometry y="60" width="516" height="26" as="geometry" />
        </mxCell>
        <mxCell id="vuCsuV92tiSEWa9CnFil-47" value="ToggleChannels( self, event )" style="text;align=left;verticalAlign=top;spacingLeft=4;spacingRight=4;overflow=hidden;rotatable=0;points=[[0,0.5],[1,0.5]];portConstraint=eastwest;fontColor=#FEFAE0;fontSize=18;" vertex="1" parent="vuCsuV92tiSEWa9CnFil-41">
          <mxGeometry y="86" width="516" height="26" as="geometry" />
        </mxCell>
        <mxCell id="vuCsuV92tiSEWa9CnFil-48" value="ExpendRowNumber(self, test_rows:str )--&gt;row_numbers:list[int] " style="text;align=left;verticalAlign=top;spacingLeft=4;spacingRight=4;overflow=hidden;rotatable=0;points=[[0,0.5],[1,0.5]];portConstraint=eastwest;fontColor=#FEFAE0;fontSize=18;" vertex="1" parent="vuCsuV92tiSEWa9CnFil-41">
          <mxGeometry y="112" width="516" height="26" as="geometry" />
        </mxCell>
        <mxCell id="vuCsuV92tiSEWa9CnFil-50" value="GetExcelPathUnderCurrentDir(self, path)" style="text;align=left;verticalAlign=top;spacingLeft=4;spacingRight=4;overflow=hidden;rotatable=0;points=[[0,0.5],[1,0.5]];portConstraint=eastwest;fontColor=#FEFAE0;fontSize=18;" vertex="1" parent="vuCsuV92tiSEWa9CnFil-41">
          <mxGeometry y="138" width="516" height="26" as="geometry" />
        </mxCell>
        <mxCell id="vuCsuV92tiSEWa9CnFil-136" value="    " style="text;align=left;verticalAlign=top;spacingLeft=4;spacingRight=4;overflow=hidden;rotatable=0;points=[[0,0.5],[1,0.5]];portConstraint=eastwest;fontColor=#FEFAE0;fontSize=18;" vertex="1" parent="vuCsuV92tiSEWa9CnFil-41">
          <mxGeometry y="164" width="516" as="geometry" />
        </mxCell>
        <mxCell id="vuCsuV92tiSEWa9CnFil-51" value="OnRun( self, event )&#xa;    ...&#xa;    ctrl = I2C(self.kwargs:dict, self.msg_text:str )&#xa;    ctrl.main()" style="text;align=left;verticalAlign=top;spacingLeft=4;spacingRight=4;overflow=hidden;rotatable=0;points=[[0,0.5],[1,0.5]];portConstraint=eastwest;fontSize=18;dashed=1;spacing=5;fillColor=none;autosize=0;fontColor=#FF5C21;" vertex="1" parent="vuCsuV92tiSEWa9CnFil-41">
          <mxGeometry y="164" width="516" height="106" as="geometry" />
        </mxCell>
        <mxCell id="vuCsuV92tiSEWa9CnFil-52" value="I2C_test.py" style="shape=module;align=left;spacingLeft=20;align=center;verticalAlign=top;fillColor=#BC6C25;strokeColor=#DDA15E;fontColor=#FEFAE0;strokeWidth=3;fontStyle=1;fontSize=30;" vertex="1" parent="WIyWlLk6GJQsqaUBKTNV-1">
          <mxGeometry y="120" width="200" height="50" as="geometry" />
        </mxCell>
        <mxCell id="vuCsuV92tiSEWa9CnFil-53" style="edgeStyle=orthogonalEdgeStyle;rounded=0;orthogonalLoop=1;jettySize=auto;html=1;entryX=0.5;entryY=1;entryDx=0;entryDy=0;endArrow=open;endFill=0;labelBackgroundColor=#283618;strokeColor=#DDA15E;fontColor=#FEFAE0;" edge="1" target="vuCsuV92tiSEWa9CnFil-52" parent="WIyWlLk6GJQsqaUBKTNV-1">
          <mxGeometry relative="1" as="geometry">
            <mxPoint x="84" y="280" as="sourcePoint" />
            <Array as="points">
              <mxPoint x="84" y="250" />
            </Array>
          </mxGeometry>
        </mxCell>
        <mxCell id="vuCsuV92tiSEWa9CnFil-54" value="I2C" style="swimlane;fontStyle=0;align=center;verticalAlign=top;childLayout=stackLayout;horizontal=1;startSize=26;horizontalStack=0;resizeParent=1;resizeLast=0;collapsible=1;marginBottom=0;rounded=0;shadow=0;strokeWidth=1;fillColor=#BC6C25;strokeColor=#DDA15E;fontColor=#FEFAE0;fontSize=18;" vertex="1" parent="WIyWlLk6GJQsqaUBKTNV-1">
          <mxGeometry x="4" y="240" width="280" height="346" as="geometry">
            <mxRectangle x="120" y="360" width="160" height="26" as="alternateBounds" />
          </mxGeometry>
        </mxCell>
        <mxCell id="vuCsuV92tiSEWa9CnFil-139" value="__init__(self, kwargs, msg_text)" style="text;align=left;verticalAlign=top;spacingLeft=4;spacingRight=4;overflow=hidden;rotatable=0;points=[[0,0.5],[1,0.5]];portConstraint=eastwest;fontStyle=0;fontColor=#FEFAE0;fontSize=18;strokeColor=none;dashed=1;" vertex="1" parent="vuCsuV92tiSEWa9CnFil-54">
          <mxGeometry y="26" width="280" height="52" as="geometry" />
        </mxCell>
        <mxCell id="vuCsuV92tiSEWa9CnFil-141" value="    self.excel_sheet:int" style="text;align=left;verticalAlign=top;spacingLeft=4;spacingRight=4;overflow=hidden;rotatable=0;points=[[0,0.5],[1,0.5]];portConstraint=eastwest;fontStyle=0;fontColor=#FEFAE0;fontSize=18;strokeColor=none;dashed=1;" vertex="1" parent="vuCsuV92tiSEWa9CnFil-54">
          <mxGeometry y="78" width="280" height="52" as="geometry" />
        </mxCell>
        <mxCell id="vuCsuV92tiSEWa9CnFil-143" value="    self.waveform:int " style="text;align=left;verticalAlign=top;spacingLeft=4;spacingRight=4;overflow=hidden;rotatable=0;points=[[0,0.5],[1,0.5]];portConstraint=eastwest;fontStyle=0;fontColor=#FEFAE0;fontSize=18;strokeColor=none;dashed=1;" vertex="1" parent="vuCsuV92tiSEWa9CnFil-54">
          <mxGeometry y="130" width="280" height="52" as="geometry" />
        </mxCell>
        <mxCell id="vuCsuV92tiSEWa9CnFil-140" value="    self.ExcelCtrl:obj" style="text;align=left;verticalAlign=top;spacingLeft=4;spacingRight=4;overflow=hidden;rotatable=0;points=[[0,0.5],[1,0.5]];portConstraint=eastwest;fontStyle=0;fontColor=#FF5C21;fontSize=18;strokeColor=none;dashed=1;" vertex="1" parent="vuCsuV92tiSEWa9CnFil-54">
          <mxGeometry y="182" width="280" height="52" as="geometry" />
        </mxCell>
        <mxCell id="vuCsuV92tiSEWa9CnFil-55" value="" style="line;html=1;strokeWidth=1;align=left;verticalAlign=middle;spacingTop=-1;spacingLeft=3;spacingRight=3;rotatable=0;labelPosition=right;points=[];portConstraint=eastwest;labelBackgroundColor=#283618;fillColor=#BC6C25;strokeColor=#DDA15E;fontColor=#FEFAE0;fontSize=18;" vertex="1" parent="vuCsuV92tiSEWa9CnFil-54">
          <mxGeometry y="234" width="280" height="8" as="geometry" />
        </mxCell>
        <mxCell id="vuCsuV92tiSEWa9CnFil-57" value="parse_case(self)--&gt;test_case:dict" style="text;align=left;verticalAlign=top;spacingLeft=4;spacingRight=4;overflow=hidden;rotatable=0;points=[[0,0.5],[1,0.5]];portConstraint=eastwest;fontColor=#FEFAE0;fontSize=18;strokeColor=default;dashed=1;" vertex="1" parent="vuCsuV92tiSEWa9CnFil-54">
          <mxGeometry y="242" width="280" height="52" as="geometry" />
        </mxCell>
        <mxCell id="vuCsuV92tiSEWa9CnFil-58" value="main" style="text;align=left;verticalAlign=top;spacingLeft=4;spacingRight=4;overflow=hidden;rotatable=0;points=[[0,0.5],[1,0.5]];portConstraint=eastwest;fontColor=#FEFAE0;fontSize=18;strokeColor=none;" vertex="1" parent="vuCsuV92tiSEWa9CnFil-54">
          <mxGeometry y="294" width="280" height="52" as="geometry" />
        </mxCell>
        <mxCell id="vuCsuV92tiSEWa9CnFil-86" value="Use" style="endArrow=open;endSize=12;dashed=1;html=1;fontSize=36;fontColor=#FEFAE0;strokeColor=#1CFF6F;strokeWidth=5;fillColor=#BC6C25;exitX=1;exitY=0.5;exitDx=0;exitDy=0;entryX=1;entryY=0.5;entryDx=0;entryDy=0;" edge="1" parent="vuCsuV92tiSEWa9CnFil-54" source="vuCsuV92tiSEWa9CnFil-58" target="vuCsuV92tiSEWa9CnFil-57">
          <mxGeometry x="0.0172" y="-40" width="160" relative="1" as="geometry">
            <mxPoint x="282" y="160" as="sourcePoint" />
            <mxPoint x="286" y="100" as="targetPoint" />
            <Array as="points">
              <mxPoint x="486" y="320" />
              <mxPoint x="486" y="268" />
            </Array>
            <mxPoint as="offset" />
          </mxGeometry>
        </mxCell>
        <mxCell id="vuCsuV92tiSEWa9CnFil-65" value="ExcelCtrl.py" style="shape=module;align=left;spacingLeft=20;align=center;verticalAlign=top;fillColor=#BC6C25;strokeColor=#DDA15E;fontColor=#FEFAE0;strokeWidth=3;fontStyle=1;fontSize=30;" vertex="1" parent="WIyWlLk6GJQsqaUBKTNV-1">
          <mxGeometry x="720" y="120" width="200" height="50" as="geometry" />
        </mxCell>
        <mxCell id="vuCsuV92tiSEWa9CnFil-66" style="edgeStyle=orthogonalEdgeStyle;rounded=0;orthogonalLoop=1;jettySize=auto;html=1;entryX=0.5;entryY=1;entryDx=0;entryDy=0;endArrow=open;endFill=0;labelBackgroundColor=#283618;strokeColor=#DDA15E;fontColor=#FEFAE0;" edge="1" target="vuCsuV92tiSEWa9CnFil-65" parent="WIyWlLk6GJQsqaUBKTNV-1">
          <mxGeometry relative="1" as="geometry">
            <mxPoint x="804" y="280" as="sourcePoint" />
            <Array as="points">
              <mxPoint x="804" y="250" />
            </Array>
          </mxGeometry>
        </mxCell>
        <mxCell id="vuCsuV92tiSEWa9CnFil-67" value="ExcelCtrl" style="swimlane;fontStyle=0;align=center;verticalAlign=top;childLayout=stackLayout;horizontal=1;startSize=26;horizontalStack=0;resizeParent=1;resizeLast=0;collapsible=1;marginBottom=0;rounded=0;shadow=0;strokeWidth=1;fillColor=#BC6C25;strokeColor=#DDA15E;fontColor=#FEFAE0;fontSize=18;" vertex="1" parent="WIyWlLk6GJQsqaUBKTNV-1">
          <mxGeometry x="724" y="240" width="496" height="294" as="geometry">
            <mxRectangle x="120" y="360" width="160" height="26" as="alternateBounds" />
          </mxGeometry>
        </mxCell>
        <mxCell id="vuCsuV92tiSEWa9CnFil-69" value="__init__(self, excel_path, excel_sheet:int, wave_form:int))" style="text;align=left;verticalAlign=top;spacingLeft=4;spacingRight=4;overflow=hidden;rotatable=0;points=[[0,0.5],[1,0.5]];portConstraint=eastwest;fontStyle=0;fontColor=#FEFAE0;fontSize=18;" vertex="1" parent="vuCsuV92tiSEWa9CnFil-67">
          <mxGeometry y="26" width="496" height="26" as="geometry" />
        </mxCell>
        <mxCell id="vuCsuV92tiSEWa9CnFil-122" value="    self.workbook:obj" style="text;align=left;verticalAlign=top;spacingLeft=4;spacingRight=4;overflow=hidden;rotatable=0;points=[[0,0.5],[1,0.5]];portConstraint=eastwest;fontStyle=0;fontColor=#FF5C21;fontSize=18;" vertex="1" parent="vuCsuV92tiSEWa9CnFil-67">
          <mxGeometry y="52" width="496" height="26" as="geometry" />
        </mxCell>
        <mxCell id="vuCsuV92tiSEWa9CnFil-123" value="    self.work_sheet:str" style="text;align=left;verticalAlign=top;spacingLeft=4;spacingRight=4;overflow=hidden;rotatable=0;points=[[0,0.5],[1,0.5]];portConstraint=eastwest;fontStyle=0;fontColor=#FEFAE0;fontSize=18;" vertex="1" parent="vuCsuV92tiSEWa9CnFil-67">
          <mxGeometry y="78" width="496" height="26" as="geometry" />
        </mxCell>
        <mxCell id="vuCsuV92tiSEWa9CnFil-124" value="    self.image_sheet:str" style="text;align=left;verticalAlign=top;spacingLeft=4;spacingRight=4;overflow=hidden;rotatable=0;points=[[0,0.5],[1,0.5]];portConstraint=eastwest;fontStyle=0;fontColor=#FEFAE0;fontSize=18;" vertex="1" parent="vuCsuV92tiSEWa9CnFil-67">
          <mxGeometry y="104" width="496" height="26" as="geometry" />
        </mxCell>
        <mxCell id="vuCsuV92tiSEWa9CnFil-125" value="    self.max_row:int" style="text;align=left;verticalAlign=top;spacingLeft=4;spacingRight=4;overflow=hidden;rotatable=0;points=[[0,0.5],[1,0.5]];portConstraint=eastwest;fontStyle=0;fontColor=#FEFAE0;fontSize=18;" vertex="1" parent="vuCsuV92tiSEWa9CnFil-67">
          <mxGeometry y="130" width="496" height="26" as="geometry" />
        </mxCell>
        <mxCell id="vuCsuV92tiSEWa9CnFil-68" value="" style="line;html=1;strokeWidth=1;align=left;verticalAlign=middle;spacingTop=-1;spacingLeft=3;spacingRight=3;rotatable=0;labelPosition=right;points=[];portConstraint=eastwest;labelBackgroundColor=#283618;fillColor=#BC6C25;strokeColor=#DDA15E;fontColor=#FEFAE0;fontSize=18;" vertex="1" parent="vuCsuV92tiSEWa9CnFil-67">
          <mxGeometry y="156" width="496" height="8" as="geometry" />
        </mxCell>
        <mxCell id="vuCsuV92tiSEWa9CnFil-70" value="get_value_from_row(self, test_row:int)--&gt;list" style="text;align=left;verticalAlign=top;spacingLeft=4;spacingRight=4;overflow=hidden;rotatable=0;points=[[0,0.5],[1,0.5]];portConstraint=eastwest;fontColor=#FEFAE0;fontSize=18;" vertex="1" parent="vuCsuV92tiSEWa9CnFil-67">
          <mxGeometry y="164" width="496" height="26" as="geometry" />
        </mxCell>
        <mxCell id="vuCsuV92tiSEWa9CnFil-71" value="write_value(self, test_case:dict, start_col:int, test_row:int)" style="text;align=left;verticalAlign=top;spacingLeft=4;spacingRight=4;overflow=hidden;rotatable=0;points=[[0,0.5],[1,0.5]];portConstraint=eastwest;fontColor=#FEFAE0;fontSize=18;" vertex="1" parent="vuCsuV92tiSEWa9CnFil-67">
          <mxGeometry y="190" width="496" height="26" as="geometry" />
        </mxCell>
        <mxCell id="vuCsuV92tiSEWa9CnFil-73" value="insert_pic(self, picstartrow:int, test_case:dict)" style="text;align=left;verticalAlign=top;spacingLeft=4;spacingRight=4;overflow=hidden;rotatable=0;points=[[0,0.5],[1,0.5]];portConstraint=eastwest;fontColor=#FEFAE0;fontSize=18;" vertex="1" parent="vuCsuV92tiSEWa9CnFil-67">
          <mxGeometry y="216" width="496" height="26" as="geometry" />
        </mxCell>
        <mxCell id="vuCsuV92tiSEWa9CnFil-72" value="pic_hyperlink(self, picstartrow:int, test_row:int)" style="text;align=left;verticalAlign=top;spacingLeft=4;spacingRight=4;overflow=hidden;rotatable=0;points=[[0,0.5],[1,0.5]];portConstraint=eastwest;fontColor=#FEFAE0;fontSize=18;" vertex="1" parent="vuCsuV92tiSEWa9CnFil-67">
          <mxGeometry y="242" width="496" height="26" as="geometry" />
        </mxCell>
        <mxCell id="vuCsuV92tiSEWa9CnFil-74" value="save_excel(self)" style="text;align=left;verticalAlign=top;spacingLeft=4;spacingRight=4;overflow=hidden;rotatable=0;points=[[0,0.5],[1,0.5]];portConstraint=eastwest;fontColor=#FEFAE0;fontSize=18;" vertex="1" parent="vuCsuV92tiSEWa9CnFil-67">
          <mxGeometry y="268" width="496" height="26" as="geometry" />
        </mxCell>
        <mxCell id="vuCsuV92tiSEWa9CnFil-81" value="Use" style="endArrow=open;endSize=12;dashed=1;html=1;fontSize=36;fontColor=#FEFAE0;strokeColor=#1CFF6F;strokeWidth=5;fillColor=#BC6C25;exitX=0.998;exitY=0.65;exitDx=0;exitDy=0;exitPerimeter=0;" edge="1" parent="WIyWlLk6GJQsqaUBKTNV-1" source="vuCsuV92tiSEWa9CnFil-51">
          <mxGeometry width="160" relative="1" as="geometry">
            <mxPoint x="-170" y="420" as="sourcePoint" />
            <mxPoint y="290" as="targetPoint" />
          </mxGeometry>
        </mxCell>
        <mxCell id="vuCsuV92tiSEWa9CnFil-84" value="Use" style="endArrow=open;endSize=12;dashed=1;html=1;fontSize=36;fontColor=#FEFAE0;strokeColor=#1CFF6F;strokeWidth=5;fillColor=#BC6C25;exitX=1;exitY=0.5;exitDx=0;exitDy=0;" edge="1" parent="WIyWlLk6GJQsqaUBKTNV-1" source="vuCsuV92tiSEWa9CnFil-140">
          <mxGeometry x="0.3639" y="11" width="160" relative="1" as="geometry">
            <mxPoint x="284" y="352" as="sourcePoint" />
            <mxPoint x="720" y="280" as="targetPoint" />
            <Array as="points" />
            <mxPoint as="offset" />
          </mxGeometry>
        </mxCell>
        <mxCell id="vuCsuV92tiSEWa9CnFil-88" value="I2CCmdGenerator.py" style="shape=module;align=left;spacingLeft=20;align=center;verticalAlign=top;fillColor=#BC6C25;strokeColor=#DDA15E;fontColor=#FEFAE0;strokeWidth=3;fontStyle=1;fontSize=30;" vertex="1" parent="WIyWlLk6GJQsqaUBKTNV-1">
          <mxGeometry x="724" y="570" width="360" height="50" as="geometry" />
        </mxCell>
        <mxCell id="vuCsuV92tiSEWa9CnFil-89" style="edgeStyle=orthogonalEdgeStyle;rounded=0;orthogonalLoop=1;jettySize=auto;html=1;entryX=0.5;entryY=1;entryDx=0;entryDy=0;endArrow=open;endFill=0;labelBackgroundColor=#283618;strokeColor=#DDA15E;fontColor=#FEFAE0;" edge="1" target="vuCsuV92tiSEWa9CnFil-88" parent="WIyWlLk6GJQsqaUBKTNV-1">
          <mxGeometry relative="1" as="geometry">
            <mxPoint x="808" y="729.9999999999998" as="sourcePoint" />
            <Array as="points">
              <mxPoint x="808" y="700" />
            </Array>
          </mxGeometry>
        </mxCell>
        <mxCell id="vuCsuV92tiSEWa9CnFil-90" value="OSC" style="swimlane;fontStyle=0;align=center;verticalAlign=top;childLayout=stackLayout;horizontal=1;startSize=26;horizontalStack=0;resizeParent=1;resizeLast=0;collapsible=1;marginBottom=0;rounded=0;shadow=0;strokeWidth=1;fillColor=#BC6C25;strokeColor=#DDA15E;fontColor=#FEFAE0;fontSize=18;" vertex="1" parent="WIyWlLk6GJQsqaUBKTNV-1">
          <mxGeometry x="728" y="690" width="626" height="216" as="geometry">
            <mxRectangle x="120" y="360" width="160" height="26" as="alternateBounds" />
          </mxGeometry>
        </mxCell>
        <mxCell id="vuCsuV92tiSEWa9CnFil-92" value="__init__(self, kwargs:dict)" style="text;align=left;verticalAlign=top;spacingLeft=4;spacingRight=4;overflow=hidden;rotatable=0;points=[[0,0.5],[1,0.5]];portConstraint=eastwest;fontStyle=0;fontColor=#FEFAE0;fontSize=18;" vertex="1" parent="vuCsuV92tiSEWa9CnFil-90">
          <mxGeometry y="26" width="626" height="26" as="geometry" />
        </mxCell>
        <mxCell id="vuCsuV92tiSEWa9CnFil-121" value="    self.osc_signal_json" style="text;align=left;verticalAlign=top;spacingLeft=4;spacingRight=4;overflow=hidden;rotatable=0;points=[[0,0.5],[1,0.5]];portConstraint=eastwest;fontStyle=0;fontColor=#FEFAE0;fontSize=18;" vertex="1" parent="vuCsuV92tiSEWa9CnFil-90">
          <mxGeometry y="52" width="626" height="26" as="geometry" />
        </mxCell>
        <mxCell id="vuCsuV92tiSEWa9CnFil-91" value="" style="line;html=1;strokeWidth=1;align=left;verticalAlign=middle;spacingTop=-1;spacingLeft=3;spacingRight=3;rotatable=0;labelPosition=right;points=[];portConstraint=eastwest;labelBackgroundColor=#283618;fillColor=#BC6C25;strokeColor=#DDA15E;fontColor=#FEFAE0;fontSize=18;" vertex="1" parent="vuCsuV92tiSEWa9CnFil-90">
          <mxGeometry y="78" width="626" height="8" as="geometry" />
        </mxCell>
        <mxCell id="vuCsuV92tiSEWa9CnFil-93" value="get_OSC_init_cmds(self)--&gt;OSC_init_cmd:list" style="text;align=left;verticalAlign=top;spacingLeft=4;spacingRight=4;overflow=hidden;rotatable=0;points=[[0,0.5],[1,0.5]];portConstraint=eastwest;fontColor=#FEFAE0;fontSize=18;" vertex="1" parent="vuCsuV92tiSEWa9CnFil-90">
          <mxGeometry y="86" width="626" height="26" as="geometry" />
        </mxCell>
        <mxCell id="vuCsuV92tiSEWa9CnFil-94" value="get_test_init_cmds(self, signal_list, measure_name)--&gt;test_init_cmds:str" style="text;align=left;verticalAlign=top;spacingLeft=4;spacingRight=4;overflow=hidden;rotatable=0;points=[[0,0.5],[1,0.5]];portConstraint=eastwest;fontColor=#FEFAE0;fontSize=18;" vertex="1" parent="vuCsuV92tiSEWa9CnFil-90">
          <mxGeometry y="112" width="626" height="26" as="geometry" />
        </mxCell>
        <mxCell id="vuCsuV92tiSEWa9CnFil-95" value="get_measure_cmds(self, signal_list, measure_name)--&gt;measure_cmds:list" style="text;align=left;verticalAlign=top;spacingLeft=4;spacingRight=4;overflow=hidden;rotatable=0;points=[[0,0.5],[1,0.5]];portConstraint=eastwest;fontColor=#FEFAE0;fontSize=18;" vertex="1" parent="vuCsuV92tiSEWa9CnFil-90">
          <mxGeometry y="138" width="626" height="26" as="geometry" />
        </mxCell>
        <mxCell id="vuCsuV92tiSEWa9CnFil-96" value="get_delay_cmds(self)--&gt;delay_cmd:list" style="text;align=left;verticalAlign=top;spacingLeft=4;spacingRight=4;overflow=hidden;rotatable=0;points=[[0,0.5],[1,0.5]];portConstraint=eastwest;fontColor=#FEFAE0;fontSize=18;" vertex="1" parent="vuCsuV92tiSEWa9CnFil-90">
          <mxGeometry y="164" width="626" height="26" as="geometry" />
        </mxCell>
        <mxCell id="vuCsuV92tiSEWa9CnFil-97" value="get_cmd(self)--&gt;single_cmds:list" style="text;align=left;verticalAlign=top;spacingLeft=4;spacingRight=4;overflow=hidden;rotatable=0;points=[[0,0.5],[1,0.5]];portConstraint=eastwest;fontColor=#FEFAE0;fontSize=18;" vertex="1" parent="vuCsuV92tiSEWa9CnFil-90">
          <mxGeometry y="190" width="626" height="26" as="geometry" />
        </mxCell>
        <mxCell id="vuCsuV92tiSEWa9CnFil-98" value="Use" style="endArrow=open;endSize=12;dashed=1;html=1;fontSize=36;fontColor=#FEFAE0;strokeColor=#1CFF6F;strokeWidth=5;fillColor=#BC6C25;entryX=0.003;entryY=0.615;entryDx=0;entryDy=0;entryPerimeter=0;exitX=1;exitY=0.5;exitDx=0;exitDy=0;" edge="1" parent="WIyWlLk6GJQsqaUBKTNV-1" source="vuCsuV92tiSEWa9CnFil-58" target="vuCsuV92tiSEWa9CnFil-92">
          <mxGeometry width="160" relative="1" as="geometry">
            <mxPoint x="280" y="350" as="sourcePoint" />
            <mxPoint x="520" y="520" as="targetPoint" />
          </mxGeometry>
        </mxCell>
        <mxCell id="vuCsuV92tiSEWa9CnFil-110" value="VisaCtrl.py" style="shape=module;align=left;spacingLeft=20;align=center;verticalAlign=top;fillColor=#BC6C25;strokeColor=#DDA15E;fontColor=#FEFAE0;strokeWidth=3;fontStyle=1;fontSize=30;" vertex="1" parent="WIyWlLk6GJQsqaUBKTNV-1">
          <mxGeometry x="728" y="1050" width="360" height="50" as="geometry" />
        </mxCell>
        <mxCell id="vuCsuV92tiSEWa9CnFil-111" style="edgeStyle=orthogonalEdgeStyle;rounded=0;orthogonalLoop=1;jettySize=auto;html=1;entryX=0.5;entryY=1;entryDx=0;entryDy=0;endArrow=open;endFill=0;labelBackgroundColor=#283618;strokeColor=#DDA15E;fontColor=#FEFAE0;" edge="1" target="vuCsuV92tiSEWa9CnFil-110" parent="WIyWlLk6GJQsqaUBKTNV-1">
          <mxGeometry relative="1" as="geometry">
            <mxPoint x="812" y="1209.9999999999998" as="sourcePoint" />
            <Array as="points">
              <mxPoint x="812" y="1180" />
            </Array>
          </mxGeometry>
        </mxCell>
        <mxCell id="vuCsuV92tiSEWa9CnFil-112" value="VisaCtrl" style="swimlane;fontStyle=0;align=center;verticalAlign=top;childLayout=stackLayout;horizontal=1;startSize=26;horizontalStack=0;resizeParent=1;resizeLast=0;collapsible=1;marginBottom=0;rounded=0;shadow=0;strokeWidth=1;fillColor=#BC6C25;strokeColor=#DDA15E;fontColor=#FEFAE0;fontSize=18;" vertex="1" parent="WIyWlLk6GJQsqaUBKTNV-1">
          <mxGeometry x="732" y="1170" width="626" height="242" as="geometry">
            <mxRectangle x="120" y="360" width="160" height="26" as="alternateBounds" />
          </mxGeometry>
        </mxCell>
        <mxCell id="vuCsuV92tiSEWa9CnFil-114" value="__init__(self, ip, osc, msg_text)&#xa;" style="text;align=left;verticalAlign=top;spacingLeft=4;spacingRight=4;overflow=hidden;rotatable=0;points=[[0,0.5],[1,0.5]];portConstraint=eastwest;fontStyle=0;fontColor=#FEFAE0;fontSize=18;" vertex="1" parent="vuCsuV92tiSEWa9CnFil-112">
          <mxGeometry y="26" width="626" height="26" as="geometry" />
        </mxCell>
        <mxCell id="vuCsuV92tiSEWa9CnFil-120" value="    self.osc_signal_json&#xa;" style="text;align=left;verticalAlign=top;spacingLeft=4;spacingRight=4;overflow=hidden;rotatable=0;points=[[0,0.5],[1,0.5]];portConstraint=eastwest;fontStyle=0;fontColor=#FEFAE0;fontSize=18;" vertex="1" parent="vuCsuV92tiSEWa9CnFil-112">
          <mxGeometry y="52" width="626" height="26" as="geometry" />
        </mxCell>
        <mxCell id="vuCsuV92tiSEWa9CnFil-113" value="" style="line;html=1;strokeWidth=1;align=left;verticalAlign=middle;spacingTop=-1;spacingLeft=3;spacingRight=3;rotatable=0;labelPosition=right;points=[];portConstraint=eastwest;labelBackgroundColor=#283618;fillColor=#BC6C25;strokeColor=#DDA15E;fontColor=#FEFAE0;fontSize=18;" vertex="1" parent="vuCsuV92tiSEWa9CnFil-112">
          <mxGeometry y="78" width="626" height="8" as="geometry" />
        </mxCell>
        <mxCell id="vuCsuV92tiSEWa9CnFil-126" value="    self.my_instrument --&gt;resource name" style="text;align=left;verticalAlign=top;spacingLeft=4;spacingRight=4;overflow=hidden;rotatable=0;points=[[0,0.5],[1,0.5]];portConstraint=eastwest;fontStyle=0;fontColor=#FEFAE0;fontSize=18;" vertex="1" parent="vuCsuV92tiSEWa9CnFil-112">
          <mxGeometry y="86" width="626" height="26" as="geometry" />
        </mxCell>
        <mxCell id="vuCsuV92tiSEWa9CnFil-115" value="init_osc(self)" style="text;align=left;verticalAlign=top;spacingLeft=4;spacingRight=4;overflow=hidden;rotatable=0;points=[[0,0.5],[1,0.5]];portConstraint=eastwest;fontColor=#FEFAE0;fontSize=18;" vertex="1" parent="vuCsuV92tiSEWa9CnFil-112">
          <mxGeometry y="112" width="626" height="26" as="geometry" />
        </mxCell>
        <mxCell id="vuCsuV92tiSEWa9CnFil-116" value="init_test(self, signal_list, measure_name)" style="text;align=left;verticalAlign=top;spacingLeft=4;spacingRight=4;overflow=hidden;rotatable=0;points=[[0,0.5],[1,0.5]];portConstraint=eastwest;fontColor=#FEFAE0;fontSize=18;" vertex="1" parent="vuCsuV92tiSEWa9CnFil-112">
          <mxGeometry y="138" width="626" height="26" as="geometry" />
        </mxCell>
        <mxCell id="vuCsuV92tiSEWa9CnFil-117" value="setup_measure(self, signal_list, measure_name)" style="text;align=left;verticalAlign=top;spacingLeft=4;spacingRight=4;overflow=hidden;rotatable=0;points=[[0,0.5],[1,0.5]];portConstraint=eastwest;fontColor=#FEFAE0;fontSize=18;" vertex="1" parent="vuCsuV92tiSEWa9CnFil-112">
          <mxGeometry y="164" width="626" height="26" as="geometry" />
        </mxCell>
        <mxCell id="vuCsuV92tiSEWa9CnFil-118" value="get_value(self, measure_name)--self.osc_signal_json" style="text;align=left;verticalAlign=top;spacingLeft=4;spacingRight=4;overflow=hidden;rotatable=0;points=[[0,0.5],[1,0.5]];portConstraint=eastwest;fontColor=#FEFAE0;fontSize=18;" vertex="1" parent="vuCsuV92tiSEWa9CnFil-112">
          <mxGeometry y="190" width="626" height="26" as="geometry" />
        </mxCell>
        <mxCell id="vuCsuV92tiSEWa9CnFil-119" value="get_pic_path(self, signal_list, Device, measure_name)--&gt;pic_path:str" style="text;align=left;verticalAlign=top;spacingLeft=4;spacingRight=4;overflow=hidden;rotatable=0;points=[[0,0.5],[1,0.5]];portConstraint=eastwest;fontColor=#FEFAE0;fontSize=18;" vertex="1" parent="vuCsuV92tiSEWa9CnFil-112">
          <mxGeometry y="216" width="626" height="26" as="geometry" />
        </mxCell>
        <mxCell id="vuCsuV92tiSEWa9CnFil-127" value="Use" style="endArrow=open;endSize=12;dashed=1;html=1;fontSize=36;fontColor=#FEFAE0;strokeColor=#1CFF6F;strokeWidth=5;fillColor=#BC6C25;" edge="1" parent="WIyWlLk6GJQsqaUBKTNV-1">
          <mxGeometry x="-0.3281" width="160" relative="1" as="geometry">
            <mxPoint x="1370" y="1290" as="sourcePoint" />
            <mxPoint x="1370" y="790" as="targetPoint" />
            <Array as="points">
              <mxPoint x="1760" y="1290" />
              <mxPoint x="1760" y="790" />
            </Array>
            <mxPoint as="offset" />
          </mxGeometry>
        </mxCell>
        <mxCell id="vuCsuV92tiSEWa9CnFil-128" value="self.my_instrument.write(init_cmd)" style="text;html=1;align=center;verticalAlign=middle;resizable=0;points=[];autosize=1;strokeColor=none;fillColor=none;fontSize=18;fontColor=#FEFAE0;" vertex="1" parent="WIyWlLk6GJQsqaUBKTNV-1">
          <mxGeometry x="1800" y="1230" width="290" height="30" as="geometry" />
        </mxCell>
        <mxCell id="vuCsuV92tiSEWa9CnFil-129" value="Use" style="endArrow=open;endSize=12;dashed=1;html=1;fontSize=36;fontColor=#FEFAE0;strokeColor=#1CFF6F;strokeWidth=5;fillColor=#BC6C25;exitX=1;exitY=0.5;exitDx=0;exitDy=0;" edge="1" parent="WIyWlLk6GJQsqaUBKTNV-1" source="vuCsuV92tiSEWa9CnFil-116">
          <mxGeometry x="-0.4386" width="160" relative="1" as="geometry">
            <mxPoint x="1370" y="1310" as="sourcePoint" />
            <mxPoint x="1356" y="825" as="targetPoint" />
            <Array as="points">
              <mxPoint x="1680" y="1321" />
              <mxPoint x="1680" y="820" />
            </Array>
            <mxPoint as="offset" />
          </mxGeometry>
        </mxCell>
        <mxCell id="vuCsuV92tiSEWa9CnFil-130" value="self.my_instrument.write(init_test_cmds)" style="text;html=1;align=center;verticalAlign=middle;resizable=0;points=[];autosize=1;strokeColor=none;fillColor=none;fontSize=18;fontColor=#FEFAE0;" vertex="1" parent="WIyWlLk6GJQsqaUBKTNV-1">
          <mxGeometry x="1720" y="1300" width="340" height="30" as="geometry" />
        </mxCell>
        <mxCell id="vuCsuV92tiSEWa9CnFil-131" value="Use" style="endArrow=open;endSize=12;dashed=1;html=1;fontSize=36;fontColor=#FEFAE0;strokeColor=#1CFF6F;strokeWidth=5;fillColor=#BC6C25;entryX=0.989;entryY=-0.201;entryDx=0;entryDy=0;entryPerimeter=0;" edge="1" parent="WIyWlLk6GJQsqaUBKTNV-1" target="vuCsuV92tiSEWa9CnFil-96">
          <mxGeometry x="-0.5114" width="160" relative="1" as="geometry">
            <mxPoint x="1360" y="1350" as="sourcePoint" />
            <mxPoint x="1760" y="1220" as="targetPoint" />
            <Array as="points">
              <mxPoint x="1610" y="1360" />
              <mxPoint x="1610" y="849" />
            </Array>
            <mxPoint as="offset" />
          </mxGeometry>
        </mxCell>
        <mxCell id="vuCsuV92tiSEWa9CnFil-133" value="self.my_instrument.write(measure_cmd)" style="text;html=1;align=center;verticalAlign=middle;resizable=0;points=[];autosize=1;strokeColor=none;fillColor=none;fontSize=18;fontColor=#FEFAE0;" vertex="1" parent="WIyWlLk6GJQsqaUBKTNV-1">
          <mxGeometry x="1640" y="1360" width="340" height="30" as="geometry" />
        </mxCell>
        <mxCell id="vuCsuV92tiSEWa9CnFil-134" value="Use" style="endArrow=open;endSize=12;dashed=1;html=1;fontSize=36;fontColor=#FEFAE0;strokeColor=#1CFF6F;strokeWidth=5;fillColor=#BC6C25;exitX=1;exitY=0.5;exitDx=0;exitDy=0;" edge="1" parent="WIyWlLk6GJQsqaUBKTNV-1" source="vuCsuV92tiSEWa9CnFil-58">
          <mxGeometry x="0.0464" y="27" width="160" relative="1" as="geometry">
            <mxPoint x="280" y="350" as="sourcePoint" />
            <mxPoint x="730" y="1220" as="targetPoint" />
            <mxPoint as="offset" />
          </mxGeometry>
        </mxCell>
        <mxCell id="vuCsuV92tiSEWa9CnFil-135" value="Use" style="endArrow=open;endSize=12;dashed=1;html=1;fontSize=36;fontColor=#FEFAE0;strokeColor=#1CFF6F;strokeWidth=5;fillColor=#BC6C25;exitX=1;exitY=0.5;exitDx=0;exitDy=0;" edge="1" parent="WIyWlLk6GJQsqaUBKTNV-1" source="vuCsuV92tiSEWa9CnFil-58">
          <mxGeometry x="-0.0809" y="-19" width="160" relative="1" as="geometry">
            <mxPoint x="280" y="350" as="sourcePoint" />
            <mxPoint x="730" y="1300" as="targetPoint" />
            <Array as="points">
              <mxPoint x="440" y="850" />
            </Array>
            <mxPoint as="offset" />
          </mxGeometry>
        </mxCell>
        <mxCell id="vuCsuV92tiSEWa9CnFil-151" value="Use" style="endArrow=open;endSize=12;dashed=1;html=1;fontSize=36;fontColor=#FEFAE0;strokeColor=#1CFF6F;strokeWidth=5;fillColor=#BC6C25;" edge="1" parent="WIyWlLk6GJQsqaUBKTNV-1">
          <mxGeometry width="160" relative="1" as="geometry">
            <mxPoint x="290" y="510" as="sourcePoint" />
            <mxPoint x="730" y="420" as="targetPoint" />
          </mxGeometry>
        </mxCell>
        <mxCell id="vuCsuV92tiSEWa9CnFil-152" value="return" style="html=1;verticalAlign=bottom;endArrow=open;dashed=1;endSize=8;fontSize=36;fontColor=#FEFAE0;strokeColor=#1CFF6F;strokeWidth=5;fillColor=#BC6C25;exitX=0;exitY=0.5;exitDx=0;exitDy=0;entryX=0.493;entryY=0;entryDx=0;entryDy=0;entryPerimeter=0;" edge="1" parent="WIyWlLk6GJQsqaUBKTNV-1" source="vuCsuV92tiSEWa9CnFil-57" target="vuCsuV92tiSEWa9CnFil-155">
          <mxGeometry relative="1" as="geometry">
            <mxPoint x="-180" y="810" as="sourcePoint" />
            <mxPoint x="-260" y="810" as="targetPoint" />
          </mxGeometry>
        </mxCell>
        <mxCell id="vuCsuV92tiSEWa9CnFil-155" value="test_case = &#xa;{&#xa;number:&#xa;	    {&#xa;	        single_name:single_name:str,&#xa;	        device:device:str,&#xa;	        measures:&#xa;            {&#xa;                mesaure_name: {&quot;value&quot;: value, &quot;pic_path&quot;: None},                &#xa;                mesaure_name: {&quot;value&quot;: value, &quot;pic_path&quot;: None},&#xa;                ...&#xa;            }&#xa;    },&#xa;number:&#xa;    {&#xa;        single_name:single_name:str,&#xa;        device:device:str,&#xa;        measures:&#xa;            {                 &#xa;                mesaure_name: {&quot;value&quot;: value, &quot;pic_path&quot;: None},                &#xa;                mesaure_name: {&quot;value&quot;: value, &quot;pic_path&quot;: None},&#xa;                ...&#xa;            }&#xa;    },&#xa;...&#xa;}" style="text;align=left;verticalAlign=top;spacingLeft=4;spacingRight=4;overflow=hidden;rotatable=0;points=[[0,0.5],[1,0.5]];portConstraint=eastwest;fontSize=18;strokeColor=#000000;fontColor=#FFFFFF;fillColor=default;" vertex="1" parent="WIyWlLk6GJQsqaUBKTNV-1">
          <mxGeometry x="-460" y="720" width="560" height="590" as="geometry" />
        </mxCell>
        <mxCell id="vuCsuV92tiSEWa9CnFil-156" value="self.osc_signal_json =&#xa;{&#xa;    &quot;test_cmd&quot;:{&#xa;        &quot;Delay&quot;:{&#xa;            &quot;Risehigh&quot;: &quot;70.0&quot;,&#xa;            &quot;Riselow&quot;: &quot;30.0&quot;,&#xa;            &quot;Fallhigh&quot;: &quot;70.0&quot;,&#xa;            &quot;Falllow&quot;: &quot;30.0&quot;&#xa;        }&#xa;    },&#xa;    &quot;Measurement&quot;: {&#xa;        &quot;THD_DAT&quot;: {&#xa;            &quot;Mode&quot;: &quot;SDA&quot;,&#xa;            &quot;Type&quot;: &quot;Delay&quot;,&#xa;            &quot;Source&quot;: &quot;CH1&amp;CH2&quot;,&#xa;            &quot;Risefall&quot;: &quot;Fall&quot;,&#xa;            &quot;Risemid&quot;: &quot;30.0&quot;,&#xa;            &quot;Fallmid&quot;: &quot;70.0&quot;&#xa;        },&#xa;        &quot;TSU_DAT&quot;: {&#xa;            &quot;Mode&quot;: &quot;SDA&quot;,&#xa;            &quot;Type&quot;: &quot;Delay&quot;,&#xa;            &quot;Source&quot;: &quot;CH2&amp;CH1&quot;,&#xa;            &quot;Risefall&quot;: &quot;Rise&quot;,&#xa;            &quot;Risemid&quot;: &quot;70.0&quot;,&#xa;            &quot;Fallmid&quot;: &quot;30.0&quot;&#xa;        },&#xa;        &quot;SCL_ViL&quot;: {&#xa;            &quot;Mode&quot;: &quot;SCL&quot;,&#xa;            &quot;Type&quot;: &quot;Minimum&amp;base&quot;,&#xa;            &quot;Source&quot;: &quot;CH1&quot;&#xa;        },&#xa;        ...&#xa;    }&#xa;}" style="text;strokeColor=none;fillColor=default;align=left;verticalAlign=top;spacingLeft=4;spacingRight=4;overflow=hidden;rotatable=0;points=[[0,0.5],[1,0.5]];portConstraint=eastwest;fontSize=18;fontColor=#FFFFFF;" vertex="1" parent="WIyWlLk6GJQsqaUBKTNV-1">
          <mxGeometry x="1830" y="390" width="330" height="750" as="geometry" />
        </mxCell>
        <mxCell id="vuCsuV92tiSEWa9CnFil-158" value="1" style="endArrow=open;html=1;endSize=12;startArrow=diamondThin;startSize=14;startFill=1;edgeStyle=orthogonalEdgeStyle;align=left;verticalAlign=bottom;fontSize=18;fontColor=#FFFFFF;strokeColor=#1CFF6F;strokeWidth=5;fillColor=#BC6C25;entryX=0;entryY=0.5;entryDx=0;entryDy=0;" edge="1" parent="WIyWlLk6GJQsqaUBKTNV-1" target="vuCsuV92tiSEWa9CnFil-156">
          <mxGeometry x="-1" y="3" relative="1" as="geometry">
            <mxPoint x="1354" y="764.29" as="sourcePoint" />
            <mxPoint x="1514" y="764.29" as="targetPoint" />
          </mxGeometry>
        </mxCell>
      </root>
    </mxGraphModel>
  </diagram>
</mxfile>
